<svg width="94" height="50" viewBox="0 0 94 50" fill="none" xmlns="http://www.w3.org/2000/svg">
<path d="M43.3422 5.76621C54.0261 4.56035 55.2539 -5.8274 62.0287 4.60313C64.6201 10.1926 65.9423 14.535 66.3138 17.9127C82.5126 17.5714 92.424 20.2164 93.0287 24.6031C93.8666 30.6897 73.4337 45.1602 44.8285 49.1031C16.2231 53.0459 0.86885 42.6895 0.0296631 36.6031C-0.566599 32.2773 7.86516 27.5692 23.0629 23.7906C23.4223 19.8265 24.0615 14.9829 25.0287 9.10313C28.6132 -3.12572 32.6581 6.97205 43.3422 5.76621Z" fill="#C09090"/>
<ellipse cx="48.0675" cy="32.4323" rx="23.1235" ry="7.70848" transform="rotate(-8.79738 48.0675 32.4323)" fill="#C09090"/>
<path d="M63.4805 19.9143C77.8238 19.4012 88.0211 21.1237 88.5118 24.6809C89.1903 29.6145 69.1062 42.6208 45.921 45.8166C22.7351 49.0126 5.22723 41.1874 4.54695 36.2541C4.07881 32.8556 12.5922 28.6725 25.5147 25.3528C30.3932 24.424 36.9183 23.1826 44.0343 22.0959C51.7287 20.921 58.6377 20.37 63.4805 19.9143ZM43.8096 7.57348C52.4692 6.59605 54.2258 -0.86175 59.7169 7.59203C61.7919 12.0675 62.8394 15.6196 63.126 18.4436C58.1839 18.7497 51.212 19.428 43.5128 20.6038C36.739 21.6381 30.572 22.8794 25.8741 23.9739C26.1032 20.5807 26.6135 16.3847 27.461 11.2327C30.3664 1.3216 35.1501 8.55081 43.8096 7.57348Z" fill="#482A2A"/>
<ellipse cx="46.0061" cy="32.6437" rx="18.7424" ry="6.248" transform="rotate(-8.79738 46.0061 32.6437)" fill="#664040"/>
</svg>
