<svg width="84" height="43" viewBox="0 0 84 43" fill="none" xmlns="http://www.w3.org/2000/svg">
<path d="M58.952 16.3116C73.2952 15.7985 83.4926 17.521 83.9832 21.0782C84.6617 26.0118 64.5776 39.0181 41.3924 42.214C18.2065 45.4099 0.698668 37.5847 0.0183818 32.6515C-0.449751 29.253 8.0636 25.0698 20.9862 21.7501C25.8646 20.8213 32.3897 19.5799 39.5057 18.4932C47.2001 17.3183 54.1092 16.7674 58.952 16.3116ZM39.2811 3.97079C47.9406 2.99336 49.6973 -4.46444 55.1883 3.98934C57.2633 8.4648 58.3108 12.0169 58.5975 14.8409C53.6553 15.147 46.6835 15.8253 38.9842 17.0011C32.2104 18.0355 26.0434 19.2767 21.3455 20.3712C21.5747 16.978 22.0849 12.7821 22.9324 7.62997C25.8378 -2.28109 30.6215 4.94812 39.2811 3.97079Z" fill="#482A2A"/>
<ellipse cx="41.4775" cy="29.041" rx="18.7424" ry="6.248" transform="rotate(-8.79738 41.4775 29.041)" fill="#664040"/>
</svg>
