<svg width="274" height="134" viewBox="0 0 274 134" fill="none" xmlns="http://www.w3.org/2000/svg">
<ellipse cx="23.4998" cy="45.6877" rx="13.5" ry="11.8125" fill="#FFE790"/>
<ellipse cx="38.4998" cy="37.8127" rx="13.5" ry="11.8125" fill="#FFE790"/>
<ellipse cx="37.4998" cy="43.0627" rx="13.5" ry="11.8125" fill="#FFE790"/>
<ellipse cx="40.4998" cy="49.1877" rx="13.5" ry="11.8125" fill="#FFE790"/>
<ellipse cx="51.4998" cy="39.5627" rx="13.5" ry="11.8125" fill="#FFE790"/>
<ellipse cx="54.4998" cy="45.6877" rx="13.5" ry="11.8125" fill="#FFE790"/>
<path d="M15.0155 56.0002C16.7178 57.3775 18.7613 58.3486 20.9998 58.7678V134H17.4998L12.9998 56.0002H15.0155ZM32.9998 60.7258C35.1451 62.1619 37.7244 63.0002 40.4998 63.0002C41.8925 63.0002 43.2359 62.7893 44.4998 62.3977V134H32.9998V60.7258ZM56.4998 126.199V58.8518C58.9341 58.4902 61.1559 57.4794 62.9842 56.0002H65.4998L56.4998 126.199Z" fill="#FF7171"/>
<path d="M90.6798 59.5702H85.9998V65.0002H78.7998V42.5002H90.1398C95.2998 42.5002 97.8798 45.2702 97.8798 50.8102C97.8798 52.0302 97.7598 53.1702 97.5198 54.2302C97.2798 55.2902 96.8698 56.2202 96.2898 57.0202C95.7298 57.8002 94.9898 58.4202 94.0698 58.8802C93.1698 59.3402 92.0398 59.5702 90.6798 59.5702ZM87.6498 48.2602H85.9998V53.8102H87.6498C88.5298 53.8102 89.1598 53.7202 89.5398 53.5402C89.9398 53.3602 90.1398 52.9402 90.1398 52.2802V49.7602C90.1398 49.1202 89.9398 48.7102 89.5398 48.5302C89.1598 48.3502 88.5298 48.2602 87.6498 48.2602ZM99.3201 56.0002C99.3201 52.7802 100.07 50.3902 101.57 48.8302C103.07 47.2502 105.5 46.4602 108.86 46.4602C112.22 46.4602 114.65 47.2502 116.15 48.8302C117.65 50.3902 118.4 52.7802 118.4 56.0002C118.4 59.2202 117.65 61.6202 116.15 63.2002C114.65 64.7602 112.22 65.5402 108.86 65.5402C105.58 65.5402 103.17 64.7702 101.63 63.2302C100.09 61.6902 99.3201 59.2802 99.3201 56.0002ZM107.06 53.2402V60.2902H108.17C109.05 60.2902 109.68 60.2002 110.06 60.0202C110.46 59.8402 110.66 59.4202 110.66 58.7602V51.7102H109.55C108.67 51.7102 108.03 51.8002 107.63 51.9802C107.25 52.1602 107.06 52.5802 107.06 53.2402ZM121.28 70.9402V47.0002H124.88L126.2 48.8002C127.26 47.2402 129.22 46.4602 132.08 46.4602C133.52 46.4602 134.73 46.7202 135.71 47.2402C136.69 47.7602 137.48 48.4602 138.08 49.3402C138.7 50.2002 139.14 51.2102 139.4 52.3702C139.68 53.5302 139.82 54.7402 139.82 56.0002C139.82 57.2202 139.7 58.3702 139.46 59.4502C139.22 60.5302 138.82 61.4902 138.26 62.3302C137.7 63.1502 136.96 63.8002 136.04 64.2802C135.12 64.7602 133.98 65.0002 132.62 65.0002H128.48V70.4002L121.28 70.9402ZM128.48 53.0602V60.2902H129.59C130.47 60.2902 131.1 60.2002 131.48 60.0202C131.88 59.8402 132.08 59.4202 132.08 58.7602V51.7102H130.97C130.45 51.7102 130.03 51.7302 129.71 51.7702C129.39 51.8102 129.11 51.9402 128.87 52.1602C128.63 52.3602 128.5 52.6602 128.48 53.0602ZM155.896 59.6002L156.346 64.7902C155.106 65.2902 153.496 65.5402 151.516 65.5402C148.156 65.5402 145.726 64.7602 144.226 63.2002C142.726 61.6202 141.976 59.2202 141.976 56.0002C141.976 52.7802 142.726 50.3902 144.226 48.8302C145.726 47.2502 148.156 46.4602 151.516 46.4602C153.656 46.4602 155.266 46.7102 156.346 47.2102L155.476 52.1002C154.836 51.9802 154.266 51.8902 153.766 51.8302C153.266 51.7502 152.826 51.7102 152.446 51.7102C150.626 51.7102 149.716 52.3502 149.716 53.6302V60.0802C150.056 60.1402 150.446 60.1902 150.886 60.2302C151.346 60.2702 151.856 60.2902 152.416 60.2902C153.536 60.2902 154.696 60.0602 155.896 59.6002ZM158.5 56.0002C158.5 52.7802 159.25 50.3902 160.75 48.8302C162.25 47.2502 164.68 46.4602 168.04 46.4602C171.4 46.4602 173.83 47.2502 175.33 48.8302C176.83 50.3902 177.58 52.7802 177.58 56.0002C177.58 59.2202 176.83 61.6202 175.33 63.2002C173.83 64.7602 171.4 65.5402 168.04 65.5402C164.76 65.5402 162.35 64.7702 160.81 63.2302C159.27 61.6902 158.5 59.2802 158.5 56.0002ZM166.24 53.2402V60.2902H167.35C168.23 60.2902 168.86 60.2002 169.24 60.0202C169.64 59.8402 169.84 59.4202 169.84 58.7602V51.7102H168.73C167.85 51.7102 167.21 51.8002 166.81 51.9802C166.43 52.1602 166.24 52.5802 166.24 53.2402ZM180.46 65.0002V47.0002H184.06L186.04 49.0102C187.48 47.6902 189.26 46.8402 191.38 46.4602L191.8 53.2702C191.52 53.2702 191.18 53.3102 190.78 53.3902C190.38 53.4702 189.97 53.5702 189.55 53.6902C189.15 53.8102 188.78 53.9602 188.44 54.1402C188.1 54.3002 187.84 54.4902 187.66 54.7102V65.0002H180.46ZM193.966 47.0002H197.566L199.366 48.8002C201.586 47.2402 203.986 46.4602 206.566 46.4602C208.266 46.4602 209.586 46.8302 210.526 47.5702C211.486 48.2902 211.966 49.3002 211.966 50.6002V65.0002H204.766V52.4002H203.656C202.836 52.4002 202.216 52.4902 201.796 52.6702C201.376 52.8302 201.166 53.2002 201.166 53.7802V65.0002H193.966V47.0002Z" fill="#482A2A"/>
<path d="M95.0525 109.782H87.9408V119.986H76.9998V77.7061H94.2319C102.073 77.7061 105.993 82.9112 105.993 93.3213C105.993 95.6138 105.811 97.7559 105.446 99.7478C105.082 101.74 104.459 103.487 103.577 104.99C102.726 106.456 101.602 107.621 100.204 108.486C98.8362 109.35 97.1191 109.782 95.0525 109.782ZM90.4481 88.5296H87.9408V98.9586H90.4481C91.7854 98.9586 92.7427 98.7894 93.3202 98.4512C93.928 98.113 94.2319 97.3238 94.2319 96.0836V91.3483C94.2319 90.1457 93.928 89.3752 93.3202 89.037C92.7427 88.6988 91.7854 88.5296 90.4481 88.5296Z" fill="#482A2A"/>
<path d="M122.223 85.1473C130.976 85.1473 135.352 88.8679 135.352 96.309V119.986H129.882L126.782 116.152C126.235 116.904 125.581 117.58 124.821 118.182C124.092 118.783 123.302 119.29 122.451 119.704C121.6 120.117 120.734 120.436 119.852 120.662C118.971 120.887 118.12 121 117.3 121C115.75 121 114.352 120.794 113.105 120.38C111.89 120.004 110.857 119.384 110.006 118.52C109.155 117.655 108.501 116.509 108.045 115.081C107.589 113.653 107.361 111.905 107.361 109.838C107.361 101.721 112.315 97.662 122.223 97.662H124.411V95.238C123.834 95.2004 123.302 95.1628 122.816 95.1252C122.36 95.0876 121.934 95.0689 121.539 95.0689C117.436 95.0689 113.896 95.6889 110.917 96.9291L109.595 87.2331C113.242 85.8425 117.452 85.1473 122.223 85.1473ZM118.394 108.373V111.135H120.673C122.253 111.135 123.287 110.91 123.773 110.459C124.198 109.97 124.411 109.387 124.411 108.711V105.498H122.177C120.871 105.498 119.913 105.667 119.305 106.005C118.698 106.343 118.394 107.133 118.394 108.373Z" fill="#482A2A"/>
<path d="M140.261 119.986V86.162H145.732L148.741 89.9389C150.929 87.4586 153.634 85.8613 156.855 85.1473L157.493 97.9439C157.068 97.9439 156.551 98.019 155.944 98.1693C155.336 98.3197 154.713 98.5076 154.074 98.7331C153.467 98.9586 152.904 99.2404 152.388 99.5787C151.871 99.8793 151.476 100.236 151.202 100.65V119.986H140.261Z" fill="#482A2A"/>
<path d="M187.864 75.0002V119.986H182.393L180.023 117.167C178.473 119.722 175.616 121 171.452 121C169.264 121 167.425 120.512 165.936 119.535C164.447 118.557 163.231 117.261 162.289 115.645C161.377 113.991 160.709 112.075 160.283 109.895C159.888 107.715 159.691 105.441 159.691 103.074C159.691 100.819 159.873 98.6767 160.238 96.6473C160.602 94.5803 161.21 92.7764 162.061 91.2355C162.912 89.6947 164.037 88.4733 165.435 87.5713C166.833 86.6318 168.565 86.162 170.632 86.162H176.923V76.0149L187.864 75.0002ZM171.452 97.8875V111.135H173.139C174.385 111.135 175.297 111.003 175.874 110.74C176.482 110.44 176.831 109.763 176.923 108.711V95.0125H175.236C173.899 95.0125 172.926 95.1816 172.318 95.5198C171.741 95.8581 171.452 96.6473 171.452 97.8875Z" fill="#482A2A"/>
<path d="M193.328 86.162H198.799L201.534 89.5443C204.907 86.613 208.554 85.1473 212.475 85.1473C215.058 85.1473 217.064 85.8425 218.492 87.2331C219.951 88.586 220.681 90.4839 220.681 92.9267V119.986H209.74V96.309H208.053C206.807 96.309 205.865 96.4782 205.226 96.8164C204.588 97.1171 204.269 97.8123 204.269 98.9022V119.986H193.328V86.162Z" fill="#482A2A"/>
<path d="M236.539 108.486V110.853C237.086 110.928 237.633 110.985 238.18 111.022C238.727 111.06 239.274 111.079 239.821 111.079C243.225 111.079 246.659 110.402 250.124 109.049L251.401 118.971C247.298 120.324 243.256 121 239.274 121C234.168 121 230.476 119.535 228.196 116.603C225.917 113.634 224.777 109.124 224.777 103.074C224.777 97.0231 225.917 92.5321 228.196 89.6007C230.506 86.6318 234.199 85.1473 239.274 85.1473C241.827 85.1473 243.955 85.354 245.657 85.7674C247.358 86.1432 248.726 86.8009 249.759 87.7404C250.823 88.6424 251.568 89.8826 251.993 91.461C252.449 93.0019 252.677 94.9561 252.677 97.3238C252.677 99.278 252.403 100.969 251.856 102.397C251.34 103.788 250.458 104.934 249.212 105.836C247.966 106.738 246.31 107.414 244.243 107.865C242.177 108.279 239.609 108.486 236.539 108.486ZM236.539 97.8875V100.65H238.773C240.11 100.65 241.067 100.481 241.645 100.142C242.253 99.8041 242.557 99.0149 242.557 97.7747V95.0125H240.323C238.986 95.0125 238.013 95.1816 237.405 95.5198C236.828 95.8581 236.539 96.6473 236.539 97.8875Z" fill="#482A2A"/>
<path d="M256.768 119.986V86.162H262.238L265.247 89.9389C267.435 87.4586 270.14 85.8613 273.362 85.1473L274 97.9439C273.574 97.9439 273.058 98.019 272.45 98.1693C271.842 98.3197 271.219 98.5076 270.581 98.7331C269.973 98.9586 269.411 99.2404 268.894 99.5787C268.377 99.8793 267.982 100.236 267.709 100.65V119.986H256.768Z" fill="#482A2A"/>
<path d="M58.9559 16.3108C73.2969 15.7981 83.4926 17.5215 83.9832 21.0783C84.3896 24.0332 77.3468 29.8821 66.6522 34.7863C64.6289 28.9514 59.0848 24.7612 52.5613 24.761C50.7314 24.761 48.978 25.0914 47.3582 25.6945C44.8312 23.7257 41.6536 22.5521 38.202 22.552C31.6356 22.552 26.0602 26.7968 24.0701 32.6916C23.2774 32.5613 22.4633 32.4934 21.6336 32.4934C16.3431 32.4934 11.6956 35.2488 9.04865 39.4026C3.59608 37.3353 0.305751 34.7355 0.0183768 32.6516C-0.449689 29.2531 8.06353 25.0699 20.9862 21.7502C25.8646 20.8214 32.3897 19.58 39.5057 18.4934C47.2023 17.3181 54.1129 16.7666 58.9559 16.3108ZM39.2811 3.97092C47.9405 2.9934 49.6973 -4.46431 55.1883 3.98947C57.2633 8.4649 58.3108 12.0171 58.5975 14.841C53.6553 15.1471 46.6835 15.8255 38.9842 17.0012C32.21 18.0357 26.0426 19.2777 21.3445 20.3723C21.5736 16.9789 22.0848 12.7827 22.9324 7.6301C25.8378 -2.2808 30.6215 4.94824 39.2811 3.97092Z" fill="#482A2A"/>
</svg>
