<svg width="274" height="134" viewBox="0 0 274 134" fill="none" xmlns="http://www.w3.org/2000/svg">
<ellipse cx="23.5" cy="45.6875" rx="13.5" ry="11.8125" fill="#FFE790"/>
<ellipse cx="38.5" cy="37.8125" rx="13.5" ry="11.8125" fill="#FFE790"/>
<ellipse cx="37.5" cy="43.0625" rx="13.5" ry="11.8125" fill="#FFE790"/>
<ellipse cx="40.5" cy="49.1875" rx="13.5" ry="11.8125" fill="#FFE790"/>
<ellipse cx="51.5" cy="39.5625" rx="13.5" ry="11.8125" fill="#FFE790"/>
<ellipse cx="54.5" cy="45.6875" rx="13.5" ry="11.8125" fill="#FFE790"/>
<path d="M39.2811 3.97085C47.9408 2.99349 49.6972 -4.46456 55.1883 3.9894C57.6435 9.2848 58.6655 13.2867 58.6834 16.3205C73.1681 15.7761 83.4899 17.4988 83.9832 21.0783C84.3896 24.0332 77.347 29.882 66.6522 34.7863C64.6289 28.9511 59.0851 24.761 52.5614 24.7609C50.7313 24.7609 48.9782 25.0913 47.3582 25.6945C44.8311 23.7256 41.6538 22.5519 38.202 22.5519C31.6355 22.5519 26.0602 26.7965 24.0702 32.6916C23.2773 32.5612 22.4634 32.4933 21.6336 32.4933C16.343 32.4933 11.6956 35.2485 9.04868 39.4025C3.59611 37.3352 0.30578 34.7355 0.0184061 32.6515C-0.453447 29.2283 8.18747 25.008 21.2684 21.6769C21.4444 18.072 21.9727 13.4643 22.9325 7.63003C25.8379 -2.28135 30.6214 4.94818 39.2811 3.97085Z" fill="#482A2A"/>
<path d="M15.0156 56C16.7179 57.3772 18.7614 58.3484 21 58.7676V134H17.5L13 56H15.0156ZM33 60.7256C35.1452 62.1617 37.7246 63 40.5 63C41.8927 63 43.236 62.789 44.5 62.3975V134H33V60.7256ZM56.5 126.199V58.8516C58.9343 58.49 61.1561 57.4791 62.9844 56H65.5L56.5 126.199Z" fill="#FF7171"/>
<path d="M90.68 59.57H86V65H78.8V42.5H90.14C95.3 42.5 97.88 45.27 97.88 50.81C97.88 52.03 97.76 53.17 97.52 54.23C97.28 55.29 96.87 56.22 96.29 57.02C95.73 57.8 94.99 58.42 94.07 58.88C93.17 59.34 92.04 59.57 90.68 59.57ZM87.65 48.26H86V53.81H87.65C88.53 53.81 89.16 53.72 89.54 53.54C89.94 53.36 90.14 52.94 90.14 52.28V49.76C90.14 49.12 89.94 48.71 89.54 48.53C89.16 48.35 88.53 48.26 87.65 48.26ZM99.3202 56C99.3202 52.78 100.07 50.39 101.57 48.83C103.07 47.25 105.5 46.46 108.86 46.46C112.22 46.46 114.65 47.25 116.15 48.83C117.65 50.39 118.4 52.78 118.4 56C118.4 59.22 117.65 61.62 116.15 63.2C114.65 64.76 112.22 65.54 108.86 65.54C105.58 65.54 103.17 64.77 101.63 63.23C100.09 61.69 99.3202 59.28 99.3202 56ZM107.06 53.24V60.29H108.17C109.05 60.29 109.68 60.2 110.06 60.02C110.46 59.84 110.66 59.42 110.66 58.76V51.71H109.55C108.67 51.71 108.03 51.8 107.63 51.98C107.25 52.16 107.06 52.58 107.06 53.24ZM121.28 70.94V47H124.88L126.2 48.8C127.26 47.24 129.22 46.46 132.08 46.46C133.52 46.46 134.73 46.72 135.71 47.24C136.69 47.76 137.48 48.46 138.08 49.34C138.7 50.2 139.14 51.21 139.4 52.37C139.68 53.53 139.82 54.74 139.82 56C139.82 57.22 139.7 58.37 139.46 59.45C139.22 60.53 138.82 61.49 138.26 62.33C137.7 63.15 136.96 63.8 136.04 64.28C135.12 64.76 133.98 65 132.62 65H128.48V70.4L121.28 70.94ZM128.48 53.06V60.29H129.59C130.47 60.29 131.1 60.2 131.48 60.02C131.88 59.84 132.08 59.42 132.08 58.76V51.71H130.97C130.45 51.71 130.03 51.73 129.71 51.77C129.39 51.81 129.11 51.94 128.87 52.16C128.63 52.36 128.5 52.66 128.48 53.06ZM155.896 59.6L156.346 64.79C155.106 65.29 153.496 65.54 151.516 65.54C148.156 65.54 145.726 64.76 144.226 63.2C142.726 61.62 141.976 59.22 141.976 56C141.976 52.78 142.726 50.39 144.226 48.83C145.726 47.25 148.156 46.46 151.516 46.46C153.656 46.46 155.266 46.71 156.346 47.21L155.476 52.1C154.836 51.98 154.266 51.89 153.766 51.83C153.266 51.75 152.826 51.71 152.446 51.71C150.626 51.71 149.716 52.35 149.716 53.63V60.08C150.056 60.14 150.446 60.19 150.886 60.23C151.346 60.27 151.856 60.29 152.416 60.29C153.536 60.29 154.696 60.06 155.896 59.6ZM158.5 56C158.5 52.78 159.25 50.39 160.75 48.83C162.25 47.25 164.68 46.46 168.04 46.46C171.4 46.46 173.83 47.25 175.33 48.83C176.83 50.39 177.58 52.78 177.58 56C177.58 59.22 176.83 61.62 175.33 63.2C173.83 64.76 171.4 65.54 168.04 65.54C164.76 65.54 162.35 64.77 160.81 63.23C159.27 61.69 158.5 59.28 158.5 56ZM166.24 53.24V60.29H167.35C168.23 60.29 168.86 60.2 169.24 60.02C169.64 59.84 169.84 59.42 169.84 58.76V51.71H168.73C167.85 51.71 167.21 51.8 166.81 51.98C166.43 52.16 166.24 52.58 166.24 53.24ZM180.46 65V47H184.06L186.04 49.01C187.48 47.69 189.26 46.84 191.38 46.46L191.8 53.27C191.52 53.27 191.18 53.31 190.78 53.39C190.38 53.47 189.97 53.57 189.55 53.69C189.15 53.81 188.78 53.96 188.44 54.14C188.1 54.3 187.84 54.49 187.66 54.71V65H180.46ZM193.966 47H197.566L199.366 48.8C201.586 47.24 203.986 46.46 206.566 46.46C208.266 46.46 209.586 46.83 210.526 47.57C211.486 48.29 211.966 49.3 211.966 50.6V65H204.766V52.4H203.656C202.836 52.4 202.216 52.49 201.796 52.67C201.376 52.83 201.166 53.2 201.166 53.78V65H193.966V47Z" fill="#482A2A"/>
<path d="M95.0527 109.782H87.941V119.985H77V77.7059H94.2321C102.073 77.7059 105.994 82.9109 105.994 93.3211C105.994 95.6136 105.811 97.7557 105.447 99.7475C105.082 101.739 104.459 103.487 103.578 104.99C102.727 106.456 101.602 107.621 100.204 108.485C98.8364 109.35 97.1193 109.782 95.0527 109.782ZM90.4483 88.5294H87.941V98.9583H90.4483C91.7855 98.9583 92.7429 98.7892 93.3203 98.451C93.9282 98.1127 94.2321 97.3235 94.2321 96.0833V91.348C94.2321 90.1454 93.9282 89.375 93.3203 89.0368C92.7429 88.6985 91.7855 88.5294 90.4483 88.5294Z" fill="#482A2A"/>
<path d="M122.223 85.1471C130.976 85.1471 135.352 88.8676 135.352 96.3088V119.985H129.882L126.782 116.152C126.235 116.904 125.581 117.58 124.822 118.181C124.092 118.783 123.302 119.29 122.451 119.703C121.6 120.117 120.734 120.436 119.853 120.662C118.971 120.887 118.12 121 117.3 121C115.75 121 114.352 120.793 113.106 120.38C111.89 120.004 110.857 119.384 110.006 118.52C109.155 117.655 108.501 116.509 108.045 115.081C107.59 113.653 107.362 111.905 107.362 109.838C107.362 101.721 112.315 97.6618 122.223 97.6618H124.411V95.2377C123.834 95.2002 123.302 95.1626 122.816 95.125C122.36 95.0874 121.934 95.0686 121.539 95.0686C117.436 95.0686 113.896 95.6887 110.917 96.9289L109.595 87.2328C113.242 85.8423 117.452 85.1471 122.223 85.1471ZM118.394 108.373V111.135H120.673C122.254 111.135 123.287 110.909 123.773 110.458C124.199 109.97 124.411 109.387 124.411 108.711V105.498H122.178C120.871 105.498 119.913 105.667 119.306 106.005C118.698 106.343 118.394 107.132 118.394 108.373Z" fill="#482A2A"/>
<path d="M140.262 119.985V86.1618H145.732L148.741 89.9387C150.929 87.4583 153.634 85.8611 156.855 85.1471L157.494 97.9436C157.068 97.9436 156.552 98.0188 155.944 98.1691C155.336 98.3194 154.713 98.5074 154.075 98.7328C153.467 98.9583 152.905 99.2402 152.388 99.5784C151.871 99.8791 151.476 100.236 151.203 100.65V119.985H140.262Z" fill="#482A2A"/>
<path d="M187.864 75V119.985H182.393L180.023 117.167C178.473 119.722 175.616 121 171.452 121C169.264 121 167.425 120.511 165.936 119.534C164.447 118.557 163.231 117.261 162.289 115.645C161.377 113.991 160.709 112.074 160.283 109.895C159.888 107.715 159.691 105.441 159.691 103.074C159.691 100.819 159.873 98.6765 160.238 96.6471C160.603 94.5801 161.21 92.7761 162.061 91.2353C162.912 89.6944 164.037 88.473 165.435 87.5711C166.833 86.6315 168.565 86.1618 170.632 86.1618H176.923V76.0147L187.864 75ZM171.452 97.8873V111.135H173.139C174.385 111.135 175.297 111.003 175.874 110.74C176.482 110.44 176.832 109.763 176.923 108.711V95.0123H175.236C173.899 95.0123 172.926 95.1814 172.318 95.5196C171.741 95.8578 171.452 96.6471 171.452 97.8873Z" fill="#482A2A"/>
<path d="M193.328 86.1618H198.799L201.534 89.5441C204.908 86.6127 208.555 85.1471 212.475 85.1471C215.058 85.1471 217.064 85.8423 218.493 87.2328C219.951 88.5858 220.681 90.4837 220.681 92.9265V119.985H209.74V96.3088H208.053C206.807 96.3088 205.865 96.4779 205.227 96.8162C204.588 97.1168 204.269 97.8121 204.269 98.902V119.985H193.328V86.1618Z" fill="#482A2A"/>
<path d="M236.539 108.485V110.853C237.086 110.928 237.633 110.984 238.18 111.022C238.727 111.06 239.274 111.078 239.821 111.078C243.225 111.078 246.66 110.402 250.124 109.049L251.401 118.971C247.298 120.324 243.256 121 239.274 121C234.169 121 230.476 119.534 228.197 116.603C225.917 113.634 224.778 109.124 224.778 103.074C224.778 97.0229 225.917 92.5319 228.197 89.6005C230.506 86.6315 234.199 85.1471 239.274 85.1471C241.827 85.1471 243.955 85.3538 245.657 85.7672C247.359 86.143 248.726 86.8007 249.76 87.7402C250.823 88.6422 251.568 89.8824 251.993 91.4608C252.449 93.0016 252.677 94.9559 252.677 97.3235C252.677 99.2778 252.404 100.969 251.857 102.397C251.34 103.788 250.459 104.934 249.213 105.836C247.966 106.738 246.31 107.414 244.243 107.865C242.177 108.279 239.609 108.485 236.539 108.485ZM236.539 97.8873V100.65H238.773C240.11 100.65 241.068 100.48 241.645 100.142C242.253 99.8039 242.557 99.0147 242.557 97.7745V95.0123H240.323C238.986 95.0123 238.013 95.1814 237.405 95.5196C236.828 95.8578 236.539 96.6471 236.539 97.8873Z" fill="#482A2A"/>
<path d="M256.768 119.985V86.1618H262.238L265.247 89.9387C267.435 87.4583 270.14 85.8611 273.362 85.1471L274 97.9436C273.575 97.9436 273.058 98.0188 272.45 98.1691C271.842 98.3194 271.219 98.5074 270.581 98.7328C269.973 98.9583 269.411 99.2402 268.894 99.5784C268.378 99.8791 267.982 100.236 267.709 100.65V119.985H256.768Z" fill="#482A2A"/>
</svg>
