<svg width="84" height="134" viewBox="0 0 84 134" fill="none" xmlns="http://www.w3.org/2000/svg">
<ellipse cx="23.4998" cy="45.6876" rx="13.5" ry="11.8125" fill="#FFE790"/>
<ellipse cx="38.4998" cy="37.8126" rx="13.5" ry="11.8125" fill="#FFE790"/>
<ellipse cx="37.4998" cy="43.0626" rx="13.5" ry="11.8125" fill="#FFE790"/>
<ellipse cx="40.4998" cy="49.1876" rx="13.5" ry="11.8125" fill="#FFE790"/>
<ellipse cx="51.4998" cy="39.5626" rx="13.5" ry="11.8125" fill="#FFE790"/>
<ellipse cx="54.4998" cy="45.6876" rx="13.5" ry="11.8125" fill="#FFE790"/>
<path d="M15.0154 56.0001C16.7177 57.3774 18.7613 58.3485 20.9998 58.7677V134H17.4998L12.9998 56.0001H15.0154ZM32.9998 60.7257C35.1451 62.1618 37.7244 63.0001 40.4998 63.0001C41.8925 63.0001 43.2359 62.7892 44.4998 62.3976V134H32.9998V60.7257ZM56.4998 126.199V58.8517C58.9341 58.4901 61.1559 57.4793 62.9842 56.0001H65.4998L56.4998 126.199Z" fill="#FF7171"/>
<path d="M58.9559 16.3107C73.2972 15.798 83.4928 17.5213 83.9832 21.0783C84.3896 24.0331 77.3469 29.882 66.6522 34.7863C64.6289 28.9512 59.0849 24.7611 52.5614 24.7609C50.7314 24.7609 48.9781 25.0913 47.3582 25.6945C44.8312 23.7256 41.6537 22.552 38.202 22.5519C31.6355 22.5519 26.0602 26.7966 24.0702 32.6915C23.2773 32.5612 22.4633 32.4933 21.6336 32.4933C16.343 32.4933 11.6956 35.2486 9.04867 39.4025C3.5961 37.3352 0.305767 34.7355 0.0183936 32.6515C-0.449902 29.2529 8.06383 25.0689 20.9871 21.7492C25.8655 20.8204 32.3903 19.5799 39.5057 18.4933C47.2023 17.318 54.1129 16.7665 58.9559 16.3107ZM39.2811 3.97085C47.9406 2.9934 49.6973 -4.46449 55.1883 3.9894C57.2633 8.4649 58.3108 12.017 58.5975 14.841C53.6553 15.1471 46.6835 15.8254 38.9842 17.0011C32.21 18.0356 26.0426 19.2777 21.3446 20.3722C21.5737 16.9788 22.0848 12.7827 22.9325 7.63003C25.8378 -2.28112 30.6215 4.94818 39.2811 3.97085Z" fill="#482A2A"/>
</svg>
