<svg width="84" height="95" viewBox="0 0 84 95" fill="none" xmlns="http://www.w3.org/2000/svg">
<ellipse cx="23.4998" cy="45.6876" rx="13.5" ry="11.8125" fill="#FFE790"/>
<ellipse cx="38.4998" cy="37.8126" rx="13.5" ry="11.8125" fill="#FFE790"/>
<ellipse cx="37.4998" cy="43.0626" rx="13.5" ry="11.8125" fill="#FFE790"/>
<ellipse cx="40.4998" cy="49.1876" rx="13.5" ry="11.8125" fill="#FFE790"/>
<ellipse cx="51.4998" cy="39.5626" rx="13.5" ry="11.8125" fill="#FFE790"/>
<ellipse cx="54.4998" cy="45.6876" rx="13.5" ry="11.8125" fill="#FFE790"/>
<path d="M13.2762 58.2198C15.2343 59.2672 17.9339 60.0105 20.9998 60.2755V95.0001H17.7068L13.2762 58.2198ZM32.9998 61.1808C35.145 61.8436 37.7245 62.2306 40.4998 62.2306C41.8925 62.2306 43.2358 62.132 44.4998 61.9513V95.0001H32.9998V61.1808ZM56.4998 90.6876V60.3156C59.9853 60.0766 63.0351 59.2221 65.117 58.0001H65.2498L56.4998 90.6876Z" fill="#FF7171"/>
<path d="M58.9559 16.3107C73.2972 15.798 83.4928 17.5213 83.9832 21.0783C84.3896 24.0331 77.3469 29.882 66.6522 34.7863C64.6289 28.9512 59.0849 24.761 52.5614 24.7609C50.7314 24.7609 48.9781 25.0913 47.3582 25.6945C44.8312 23.7256 41.6537 22.552 38.202 22.5519C31.6355 22.5519 26.0602 26.7966 24.0702 32.6915C23.2773 32.5612 22.4633 32.4933 21.6336 32.4933C16.343 32.4933 11.6956 35.2486 9.04867 39.4025C3.5961 37.3352 0.305767 34.7354 0.0183935 32.6515C-0.449902 29.2529 8.06383 25.0689 20.9871 21.7492C25.8655 20.8204 32.3903 19.5799 39.5057 18.4933C47.2023 17.318 54.1129 16.7665 58.9559 16.3107ZM39.2811 3.97084C47.9406 2.99339 49.6973 -4.4645 55.1883 3.98939C57.2633 8.46489 58.3108 12.017 58.5975 14.841C53.6553 15.1471 46.6835 15.8254 38.9842 17.0011C32.21 18.0356 26.0426 19.2777 21.3446 20.3722C21.5737 16.9788 22.0848 12.7827 22.9325 7.63002C25.8378 -2.28113 30.6215 4.94817 39.2811 3.97084Z" fill="#482A2A"/>
</svg>
